<svg width="914" height="400" fill="none" xmlns="http://www.w3.org/2000/svg"><path fill="#fff" d="M0 0h914v400H0z"/><path d="M390.258 192.785c-.729 0-1.326-.214-1.791-.642a2.114 2.114 0 0 1-.697-1.6c0-.647.232-1.176.697-1.586.465-.41 1.062-.615 1.791-.615.739 0 1.336.205 1.791.615.465.41.698.939.698 1.586 0 .656-.233 1.194-.698 1.613-.455.42-1.052.629-1.791.629ZM392.391 209h-4.32v-14h4.32v14Zm25.307 0h-4.306v-7.984c0-2.033-.748-3.049-2.243-3.049-.71 0-1.289.305-1.736.916-.446.61-.67 1.372-.67 2.283V209h-4.32v-8.066c0-1.978-.734-2.967-2.201-2.967-.739 0-1.331.291-1.778.875-.437.583-.656 1.376-.656 2.379V209h-4.32v-14h4.32v2.188h.055c.446-.748 1.071-1.354 1.873-1.819a5.163 5.163 0 0 1 2.652-.711c1.978 0 3.332.871 4.061 2.612 1.066-1.741 2.634-2.612 4.703-2.612 3.044 0 4.566 1.878 4.566 5.633V209Zm14.507 0h-4.088v-2.01h-.055c-.939 1.568-2.329 2.352-4.17 2.352-1.358 0-2.429-.383-3.213-1.149-.774-.774-1.162-1.804-1.162-3.089 0-2.717 1.609-4.284 4.826-4.704l3.801-.505c0-1.532-.829-2.297-2.488-2.297-1.668 0-3.254.496-4.758 1.49v-3.254c.602-.31 1.422-.583 2.461-.82 1.048-.237 2.001-.356 2.857-.356 3.993 0 5.989 1.992 5.989 5.975V209Zm-4.061-5.688v-.943l-2.543.328c-1.403.183-2.105.816-2.105 1.901 0 .492.168.897.506 1.216.346.31.811.465 1.394.465.811 0 1.472-.278 1.983-.834.51-.565.765-1.276.765-2.133Zm20.645 4.088c0 2.598-.752 4.608-2.256 6.03-1.504 1.431-3.682 2.146-6.535 2.146-1.887 0-3.381-.269-4.484-.806v-3.637c1.44.838 2.894 1.258 4.361 1.258 1.458 0 2.589-.388 3.391-1.162.802-.766 1.203-1.81 1.203-3.131v-1.108h-.055c-.984 1.568-2.438 2.352-4.361 2.352-1.787 0-3.204-.629-4.252-1.887-1.048-1.258-1.572-2.944-1.572-5.059 0-2.369.583-4.251 1.75-5.646 1.166-1.395 2.702-2.092 4.607-2.092 1.705 0 2.981.656 3.828 1.969h.055V195h4.32v12.4Zm-4.265-5.127v-1.107c0-.884-.265-1.636-.793-2.256-.52-.629-1.199-.943-2.037-.943-.958 0-1.709.373-2.256 1.121-.547.747-.821 1.8-.821 3.158 0 1.167.26 2.092.78 2.775.519.675 1.23 1.012 2.132 1.012.894 0 1.614-.342 2.161-1.025.556-.693.834-1.604.834-2.735Zm9.502-9.488c-.729 0-1.326-.214-1.791-.642a2.114 2.114 0 0 1-.697-1.6c0-.647.232-1.176.697-1.586.465-.41 1.062-.615 1.791-.615.738 0 1.335.205 1.791.615.465.41.697.939.697 1.586 0 .656-.232 1.194-.697 1.613-.456.42-1.053.629-1.791.629ZM456.159 209h-4.32v-14h4.32v14Zm16.598 0h-4.307v-7.779c0-2.17-.774-3.254-2.324-3.254-.747 0-1.362.287-1.845.861-.484.574-.725 1.304-.725 2.188V209h-4.32v-14h4.32v2.215h.055c1.03-1.705 2.529-2.557 4.498-2.557 3.099 0 4.648 1.923 4.648 5.77V209Zm16.598-1.6c0 2.598-.752 4.608-2.256 6.03-1.503 1.431-3.682 2.146-6.535 2.146-1.886 0-3.381-.269-4.484-.806v-3.637c1.44.838 2.894 1.258 4.361 1.258 1.459 0 2.589-.388 3.391-1.162.802-.766 1.203-1.81 1.203-3.131v-1.108h-.055c-.984 1.568-2.438 2.352-4.361 2.352-1.787 0-3.204-.629-4.252-1.887-1.048-1.258-1.572-2.944-1.572-5.059 0-2.369.583-4.251 1.75-5.646 1.166-1.395 2.702-2.092 4.607-2.092 1.705 0 2.981.656 3.828 1.969h.055V195h4.32v12.4Zm-4.265-5.127v-1.107c0-.884-.265-1.636-.793-2.256-.52-.629-1.199-.943-2.037-.943-.957 0-1.709.373-2.256 1.121-.547.747-.821 1.8-.821 3.158 0 1.167.26 2.092.78 2.775.519.675 1.23 1.012 2.133 1.012.893 0 1.613-.342 2.16-1.025.556-.693.834-1.604.834-2.735Z" fill="#333"/><path d="M493.649 209.273c-.365 0-.675-.127-.93-.382a1.268 1.268 0 0 1-.383-.93c0-.374.123-.688.369-.943.256-.256.57-.383.944-.383.182 0 .351.036.506.109.164.064.305.155.423.274a1.297 1.297 0 0 1 .397.943c0 .182-.036.355-.109.519a1.45 1.45 0 0 1-.288.411 1.214 1.214 0 0 1-.423.273 1.173 1.173 0 0 1-.506.109Zm16.352-1.353c0 2.598-.593 4.521-1.777 5.769-1.176 1.258-2.995 1.887-5.456 1.887a9.598 9.598 0 0 1-4.347-1.025v-1.778c1.522.848 2.971 1.272 4.347 1.272 3.655 0 5.483-1.932 5.483-5.797v-1.682h-.055c-1.075 1.842-2.716 2.762-4.922 2.762-.866 0-1.659-.159-2.379-.478a5.15 5.15 0 0 1-1.832-1.381c-.51-.602-.906-1.331-1.189-2.188-.283-.866-.424-1.841-.424-2.926 0-1.148.151-2.192.451-3.13.301-.948.729-1.76 1.285-2.434a5.69 5.69 0 0 1 2.01-1.559c.793-.373 1.682-.56 2.666-.56 1.978 0 3.423.802 4.334 2.406h.055V195h1.75v12.92Zm-1.75-7.424a4.37 4.37 0 0 0-1.19-3.021 4.105 4.105 0 0 0-1.339-.93 3.981 3.981 0 0 0-1.696-.356c-.729 0-1.39.142-1.982.424a4.366 4.366 0 0 0-1.504 1.203c-.41.52-.729 1.153-.957 1.901-.219.738-.328 1.572-.328 2.502 0 .857.105 1.631.314 2.324.21.693.506 1.281.889 1.764a4 4 0 0 0 1.381 1.121 4.128 4.128 0 0 0 1.818.396c.693 0 1.322-.123 1.887-.369a4.383 4.383 0 0 0 1.449-1.039c.401-.447.711-.966.93-1.559a5.626 5.626 0 0 0 .328-1.941v-2.42Zm11.43 8.832c-1.039 0-1.973-.173-2.803-.519a6.04 6.04 0 0 1-2.105-1.463 6.55 6.55 0 0 1-1.34-2.284c-.31-.884-.465-1.863-.465-2.939 0-1.167.164-2.21.492-3.131.329-.92.793-1.7 1.395-2.338a6.008 6.008 0 0 1 2.201-1.476c.857-.338 1.814-.506 2.871-.506 1.012 0 1.923.168 2.735.506a5.507 5.507 0 0 1 2.064 1.435c.565.629.998 1.395 1.299 2.297.301.902.451 1.928.451 3.076 0 1.094-.159 2.092-.478 2.994a6.671 6.671 0 0 1-1.34 2.311 5.981 5.981 0 0 1-2.133 1.504c-.839.355-1.787.533-2.844.533Zm.137-13.139c-.766 0-1.458.133-2.078.397a4.39 4.39 0 0 0-1.6 1.162c-.437.501-.775 1.121-1.012 1.859-.237.73-.355 1.559-.355 2.489 0 .875.118 1.663.355 2.365.237.702.57 1.303.998 1.805.438.501.967.888 1.586 1.162.62.264 1.313.396 2.079.396.783 0 1.476-.127 2.078-.383a4.205 4.205 0 0 0 1.531-1.134c.419-.502.734-1.112.943-1.832.219-.72.328-1.541.328-2.461 0-1.887-.419-3.327-1.257-4.321-.839-1.002-2.038-1.504-3.596-1.504Z" fill="#555"/></svg>