<svg width="914" height="400" fill="none" xmlns="http://www.w3.org/2000/svg"><style>#CL0 {fill: #00ACD7;}#CL1 {fill: #333;}@media (prefers-color-scheme: dark) {#CL0 {fill: #00ACD7;}#CL1 {fill: #EEE;}}</style><path d="M380.055 208v-3.78h5.096v-7.84h-4.536v-3.78h8.736v11.62h4.424V208h-13.72Zm7-17.836c-.766 0-1.382-.196-1.848-.588-.448-.392-.672-.924-.672-1.596s.224-1.204.672-1.596c.466-.392 1.082-.588 1.848-.588.765 0 1.372.196 1.82.588.466.392.7.924.7 1.596s-.234 1.204-.7 1.596c-.448.392-1.055.588-1.82.588ZM394.828 208v-15.4h3.444v2.38h.588l-.532.308c0-.877.233-1.587.7-2.128.466-.56 1.092-.84 1.876-.84.784 0 1.437.317 1.96.952.541.616.812 1.419.812 2.408l-.588-.7h.784l-.28.308c0-.896.242-1.615.728-2.156.504-.541 1.148-.812 1.932-.812.914 0 1.68.364 2.296 1.092.634.728.952 1.671.952 2.828V208h-3.612v-11.284c0-.429-.094-.756-.28-.98-.168-.243-.43-.364-.784-.364-.355 0-.616.121-.784.364-.15.224-.224.551-.224.98V208h-3.304v-11.284c0-.429-.084-.756-.252-.98-.15-.243-.402-.364-.756-.364-.355 0-.626.121-.812.364-.168.224-.252.551-.252.98V208h-3.612Zm21.017.28c-1.531 0-2.744-.439-3.64-1.316-.896-.896-1.344-2.063-1.344-3.5 0-1.045.242-1.941.728-2.688.504-.747 1.222-1.316 2.156-1.708.952-.411 2.09-.616 3.416-.616h3.024v-.98c0-.579-.206-1.027-.616-1.344-.392-.336-.962-.504-1.708-.504-.71 0-1.279.14-1.708.42-.411.28-.635.691-.672 1.232h-3.976c.056-1.512.653-2.716 1.792-3.612 1.138-.896 2.678-1.344 4.62-1.344 2.034 0 3.621.467 4.76 1.4 1.138.933 1.708 2.24 1.708 3.92V208h-4.06v-3.052h-.672l.756-.448c0 .765-.187 1.437-.56 2.016-.374.56-.906.999-1.596 1.316-.672.299-1.475.448-2.408.448Zm1.484-3.36c.877 0 1.568-.215 2.072-.644.522-.448.784-1.027.784-1.736v-1.568h-2.94c-.747 0-1.326.187-1.736.56-.392.355-.588.821-.588 1.4s.205 1.055.616 1.428c.429.373 1.026.56 1.792.56Zm11.833 8.12v-3.36h4.34c.784 0 1.381-.196 1.792-.588.429-.392.644-.933.644-1.624v-.588l.056-3.5h-.98l1.54-1.82c0 1.736-.42 3.108-1.26 4.116-.821.989-1.951 1.484-3.388 1.484-1.549 0-2.791-.541-3.724-1.624-.933-1.083-1.4-2.548-1.4-4.396v-2.8c0-1.829.467-3.285 1.4-4.368.933-1.101 2.175-1.652 3.724-1.652 1.437 0 2.567.504 3.388 1.512.84.989 1.26 2.352 1.26 4.088l-1.54-2.66h.98v-2.66h4.06v15.008c0 1.68-.579 3.005-1.736 3.976-1.139.971-2.697 1.456-4.676 1.456h-4.48Zm4.256-9.52c.765 0 1.363-.215 1.792-.644.429-.448.644-1.073.644-1.876v-2.52c0-.803-.215-1.419-.644-1.848-.429-.448-1.027-.672-1.792-.672-.784 0-1.391.224-1.82.672-.411.429-.616 1.045-.616 1.848V201c0 .803.205 1.428.616 1.876.429.429 1.036.644 1.82.644Zm9.313 4.48v-3.78h5.096v-7.84h-4.536v-3.78h8.736v11.62h4.424V208h-13.72Zm7-17.836c-.765 0-1.381-.196-1.848-.588-.448-.392-.672-.924-.672-1.596s.224-1.204.672-1.596c.467-.392 1.083-.588 1.848-.588.765 0 1.372.196 1.82.588.467.392.7.924.7 1.596s-.233 1.204-.7 1.596c-.448.392-1.055.588-1.82.588ZM458.288 208v-15.4h4.06v2.94h1.232l-1.372.98c.019-1.251.42-2.259 1.204-3.024.803-.784 1.829-1.176 3.08-1.176 1.493 0 2.688.523 3.584 1.568.915 1.045 1.372 2.436 1.372 4.172V208h-4.2v-9.52c0-.803-.215-1.419-.644-1.848-.411-.448-.989-.672-1.736-.672s-1.335.224-1.764.672c-.411.429-.616 1.045-.616 1.848V208h-4.2Zm17.881 5.04v-3.36h4.34c.784 0 1.381-.196 1.792-.588.429-.392.644-.933.644-1.624v-.588l.056-3.5h-.98l1.54-1.82c0 1.736-.42 3.108-1.26 4.116-.821.989-1.951 1.484-3.388 1.484-1.549 0-2.791-.541-3.724-1.624-.933-1.083-1.4-2.548-1.4-4.396v-2.8c0-1.829.467-3.285 1.4-4.368.933-1.101 2.175-1.652 3.724-1.652 1.437 0 2.567.504 3.388 1.512.84.989 1.26 2.352 1.26 4.088l-1.54-2.66h.98v-2.66h4.06v15.008c0 1.68-.579 3.005-1.736 3.976-1.139.971-2.697 1.456-4.676 1.456h-4.48Zm4.256-9.52c.765 0 1.363-.215 1.792-.644.429-.448.644-1.073.644-1.876v-2.52c0-.803-.215-1.419-.644-1.848-.429-.448-1.027-.672-1.792-.672-.784 0-1.391.224-1.82.672-.411.429-.616 1.045-.616 1.848V201c0 .803.205 1.428.616 1.876.429.429 1.036.644 1.82.644Z" id="CL1"/><path d="M496.178 208.28c-.672 0-1.213-.196-1.624-.588-.411-.411-.616-.943-.616-1.596 0-.653.205-1.185.616-1.596.411-.429.952-.644 1.624-.644.672 0 1.213.215 1.624.644.411.411.616.943.616 1.596 0 .653-.205 1.185-.616 1.596-.411.392-.952.588-1.624.588Zm11.861 4.76v-2.016h4.284c.934 0 1.662-.261 2.184-.784.523-.504.784-1.213.784-2.128v-1.372l.056-2.688h-.056c-.186.896-.644 1.596-1.372 2.1-.728.504-1.652.756-2.772.756-1.568 0-2.809-.495-3.724-1.484-.914-1.008-1.372-2.389-1.372-4.144v-3.276c0-1.736.458-3.117 1.372-4.144.915-1.027 2.156-1.54 3.724-1.54 1.12 0 2.044.261 2.772.784.728.523 1.186 1.241 1.372 2.156h.028v-2.66h2.184v15.512c0 1.549-.466 2.753-1.4 3.612-.914.877-2.184 1.316-3.808 1.316h-4.256Zm3.752-7.98c1.083 0 1.942-.336 2.576-1.008.635-.691.952-1.643.952-2.856v-3.08c0-1.213-.317-2.156-.952-2.828-.616-.691-1.474-1.036-2.576-1.036-1.12 0-1.988.327-2.604.98-.616.653-.924 1.549-.924 2.688v3.472c0 1.139.308 2.035.924 2.688.616.653 1.484.98 2.604.98Zm15.725 3.192c-1.792 0-3.22-.532-4.284-1.596-1.064-1.064-1.596-2.539-1.596-4.424v-3.864c0-1.885.523-3.36 1.568-4.424 1.064-1.064 2.502-1.596 4.312-1.596 1.811 0 3.239.532 4.284 1.596 1.064 1.064 1.596 2.539 1.596 4.424v3.864c0 1.885-.532 3.36-1.596 4.424-1.064 1.064-2.492 1.596-4.284 1.596Zm0-1.988c1.139 0 2.035-.327 2.688-.98.654-.653.98-1.605.98-2.856v-4.256c0-1.251-.326-2.203-.98-2.856-.653-.653-1.549-.98-2.688-.98-1.138 0-2.034.327-2.688.98-.653.653-.98 1.605-.98 2.856v4.256c0 1.251.327 2.203.98 2.856.654.653 1.55.98 2.688.98Z" id="CL0"/></svg>